<svg width="218" height="218" viewBox="0 0 218 218" fill="none" xmlns="http://www.w3.org/2000/svg">
<circle cx="109" cy="109" r="109" fill="#C6C6C6"/>
<g opacity="0.75">
<g filter="url(#filter0_d)">
<path d="M44 44C44 37.3726 49.3726 32 56 32H159C167.284 32 174 38.7157 174 47V170C174 178.284 167.284 185 159 185H56C49.3726 185 44 179.627 44 173V44Z" fill="#2E84BF"/>
</g>
<g filter="url(#filter1_d)">
<circle cx="118" cy="109" r="41" fill="#CE2828"/>
</g>
<circle cx="118" cy="109" r="32" fill="white"/>
<path d="M102 95H114.5V90.5H120.5V95H134V101H102V95Z" fill="black"/>
<rect x="105.861" y="103.386" width="5.84809" height="14.2904" transform="rotate(-17 105.861 103.386)" fill="black"/>
<rect x="124.243" y="101.423" width="5.82632" height="18.3186" transform="rotate(17.1456 124.243 101.423)" fill="black"/>
<rect x="101" y="118" width="34" height="6" fill="black"/>
<path d="M44 44C44 37.3726 49.3726 32 56 32H64V185H56C49.3726 185 44 179.627 44 173V44Z" fill="#69A3CB"/>
<g style="mix-blend-mode:color">
<path d="M44 44C44 37.3726 49.3726 32 56 32H159C167.284 32 174 38.7157 174 47V170C174 178.284 167.284 185 159 185H56C49.3726 185 44 179.627 44 173V44Z" fill="black"/>
</g>
</g>
<defs>
<filter id="filter0_d" x="42" y="31" width="134" height="157" filterUnits="userSpaceOnUse" color-interpolation-filters="sRGB">
<feFlood flood-opacity="0" result="BackgroundImageFix"/>
<feColorMatrix in="SourceAlpha" type="matrix" values="0 0 0 0 0 0 0 0 0 0 0 0 0 0 0 0 0 0 127 0"/>
<feOffset dy="1"/>
<feGaussianBlur stdDeviation="1"/>
<feColorMatrix type="matrix" values="0 0 0 0 0 0 0 0 0 0 0 0 0 0 0 0 0 0 0.46 0"/>
<feBlend mode="normal" in2="BackgroundImageFix" result="effect1_dropShadow"/>
<feBlend mode="normal" in="SourceGraphic" in2="effect1_dropShadow" result="shape"/>
</filter>
<filter id="filter1_d" x="74" y="66" width="88" height="88" filterUnits="userSpaceOnUse" color-interpolation-filters="sRGB">
<feFlood flood-opacity="0" result="BackgroundImageFix"/>
<feColorMatrix in="SourceAlpha" type="matrix" values="0 0 0 0 0 0 0 0 0 0 0 0 0 0 0 0 0 0 127 0"/>
<feOffset dy="1"/>
<feGaussianBlur stdDeviation="1.5"/>
<feColorMatrix type="matrix" values="0 0 0 0 0 0 0 0 0 0 0 0 0 0 0 0 0 0 0.52 0"/>
<feBlend mode="normal" in2="BackgroundImageFix" result="effect1_dropShadow"/>
<feBlend mode="normal" in="SourceGraphic" in2="effect1_dropShadow" result="shape"/>
</filter>
</defs>
</svg>
